<?xml version="1.0" encoding="utf-8"?>
<!-- Generator: Adobe Illustrator 20.1.0, SVG Export Plug-In . SVG Version: 6.00 Build 0)  -->
<svg version="1.1" id="_x34_0_x5F_tracking_x5F_glove"
	 xmlns="http://www.w3.org/2000/svg" xmlns:xlink="http://www.w3.org/1999/xlink" x="0px" y="0px" viewBox="0 0 67.5 51.5"
	 style="enable-background:new 0 0 67.5 51.5;" xml:space="preserve">
<style type="text/css">
	.st0{fill:none;stroke:#FD0DDC;stroke-width:2;stroke-linejoin:round;stroke-miterlimit:10;}
	.st1{fill:none;stroke:#03F9DD;stroke-width:2;stroke-linejoin:round;stroke-miterlimit:10;}
</style>
<g>
	<g>
		<rect x="14.8" y="22.3" transform="matrix(0.7071 -0.7071 0.7071 0.7071 -12.9792 19.3345)" class="st0" width="4" height="6"/>
		<rect x="19.1" y="13.3" transform="matrix(0.7071 -0.7071 0.7071 0.7071 -6.7365 20.2635)" class="st0" width="4" height="10"/>
		<rect x="25.5" y="9.3" transform="matrix(0.7071 -0.7071 0.7071 0.7071 -1.3726 23.3137)" class="st0" width="4" height="8"/>
		<rect x="32.5" y="7.1" transform="matrix(0.7071 -0.7071 0.7071 0.7071 3.6985 27.0711)" class="st0" width="4" height="4"/>
		<path class="st0" d="M31,25.3c0.4,0.4,0.4,1,0,1.4l-1.4,1.4c-0.4,0.4-1,0.4-1.4,0l-1.4-1.4c-0.4-0.4-0.4-1,0-1.4l1.4-1.4
			c0.4-0.4,1-0.4,1.4,0L31,25.3z"/>
		<path class="st0" d="M36.6,19.7c0.4,0.4,0.4,1,0,1.4l-1.4,1.4c-0.4,0.4-1,0.4-1.4,0l-1.4-1.4c-0.4-0.4-0.4-1,0-1.4l1.4-1.4
			c0.4-0.4,1-0.4,1.4,0L36.6,19.7z"/>
		<path class="st0" d="M55.7,35.9L42.3,22.5c-0.4-0.4-0.4-1,0-1.4l3.5-3.5"/>
		<path class="st0" d="M44.4,47.3L31,33.8c-0.4-0.4-1-0.4-1.4,0l-1.4,1.4"/>
		<line class="st0" x1="35.9" y1="21.8" x2="52.9" y2="38.8"/>
		<line class="st0" x1="30.3" y1="27.5" x2="47.3" y2="44.4"/>
		<rect x="8.5" y="17" transform="matrix(0.7071 -0.7071 0.7071 0.7071 -10.3431 12.9706)" class="st0" width="4" height="4"/>
		<rect x="2.8" y="11.3" transform="matrix(0.7071 -0.7071 0.7071 0.7071 -8 7.3137)" class="st0" width="4" height="4"/>
		<rect x="11.3" y="8.5" transform="matrix(0.7071 -0.7071 0.7071 0.7071 -3.5147 12.4853)" class="st0" width="4" height="4"/>
		<rect x="5.7" y="2.8" transform="matrix(0.7071 -0.7071 0.7071 0.7071 -1.1716 6.8284)" class="st0" width="4" height="4"/>
		<line class="st0" x1="6.2" y1="14.7" x2="9.1" y2="17.6"/>
		<line class="st0" x1="11.9" y1="20.4" x2="14.7" y2="23.2"/>
		<path class="st0" d="M24.6,10.5"/>
		<line class="st0" x1="14.7" y1="11.9" x2="17.6" y2="14.7"/>
		<line class="st0" x1="9.1" y1="6.2" x2="11.9" y2="9.1"/>
		<path class="st0" d="M33.1,7.7"/>
		<polygon class="st0" points="24.6,21.8 24.6,21.8 27.5,24.6 27.5,24.6 		"/>
		<polygon class="st0" points="30.3,16.1 30.3,16.1 33.1,19 33.1,19 		"/>
		<path class="st0" d="M34.5,11.9l3.5,3.5c0.4,0.4,0.4,1,0,1.4L35.9,19"/>
		<path class="st0" d="M20.4,26l3.5,3.5c0.4,0.4,1,0.4,1.4,0l2.1-2.1"/>
		<line class="st0" x1="40.9" y1="32.4" x2="42.3" y2="33.8"/>
		<line class="st0" x1="43.7" y1="35.2" x2="45.1" y2="36.6"/>
		<line class="st0" x1="46.5" y1="38.1" x2="48" y2="39.5"/>
		<polyline class="st0" points="57.2,34.5 60,37.4 45.8,51.5 43,48.7 		"/>
		<polyline class="st0" points="50.8,25.3 49.4,23.9 48,19.7 39.5,11.2 		"/>
		<polyline class="st0" points="28.2,39.5 20.4,31.7 18.3,33.8 14,33.8 14,39.5 28.2,39.5 32.4,40.9 41.6,50.1 58.6,33.1 55,29.6 		
			"/>
		<path class="st0" d="M14,36.6"/>
		<line class="st0" x1="30.3" y1="24.6" x2="33.1" y2="21.8"/>
		<path class="st0" d="M67.8,31l-7.1-7.1c-1.2-1.2-3.1-1.2-4.2,0l-4.2,4.2"/>
	</g>
	<g>
		<g>
			<rect x="13.8" y="21.3" transform="matrix(0.7071 -0.7071 0.7071 0.7071 -12.565 18.3345)" class="st1" width="4" height="6"/>
			<rect x="18.1" y="12.3" transform="matrix(0.7071 -0.7071 0.7071 0.7071 -6.3223 19.2635)" class="st1" width="4" height="10"/>
			<rect x="24.5" y="8.3" transform="matrix(0.7071 -0.7071 0.7071 0.7071 -0.9584 22.3137)" class="st1" width="4" height="8"/>
			<rect x="31.5" y="6.1" transform="matrix(0.7071 -0.7071 0.7071 0.7071 4.1127 26.0711)" class="st1" width="4" height="4"/>
			<path class="st1" d="M30,24.3c0.4,0.4,0.4,1,0,1.4l-1.4,1.4c-0.4,0.4-1,0.4-1.4,0l-1.4-1.4c-0.4-0.4-0.4-1,0-1.4l1.4-1.4
				c0.4-0.4,1-0.4,1.4,0L30,24.3z"/>
			<path class="st1" d="M35.6,18.7c0.4,0.4,0.4,1,0,1.4l-1.4,1.4c-0.4,0.4-1,0.4-1.4,0l-1.4-1.4c-0.4-0.4-0.4-1,0-1.4l1.4-1.4
				c0.4-0.4,1-0.4,1.4,0L35.6,18.7z"/>
			<path class="st1" d="M54.7,34.9L41.3,21.5c-0.4-0.4-0.4-1,0-1.4l3.5-3.5"/>
			<path class="st1" d="M43.4,46.3L30,32.8c-0.4-0.4-1-0.4-1.4,0l-1.4,1.4"/>
			<line class="st1" x1="34.9" y1="20.8" x2="51.9" y2="37.8"/>
			<line class="st1" x1="29.3" y1="26.5" x2="46.3" y2="43.4"/>
			<rect x="7.5" y="16" transform="matrix(0.7071 -0.7071 0.7071 0.7071 -9.9289 11.9706)" class="st1" width="4" height="4"/>
			<rect x="1.8" y="10.3" transform="matrix(0.7071 -0.7071 0.7071 0.7071 -7.5858 6.3137)" class="st1" width="4" height="4"/>
			<rect x="10.3" y="7.5" transform="matrix(0.7071 -0.7071 0.7071 0.7071 -3.1005 11.4853)" class="st1" width="4" height="4"/>
			<rect x="4.7" y="1.8" transform="matrix(0.7071 -0.7071 0.7071 0.7071 -0.7574 5.8284)" class="st1" width="4" height="4"/>
			<line class="st1" x1="5.2" y1="13.7" x2="8.1" y2="16.6"/>
			<line class="st1" x1="10.9" y1="19.4" x2="13.7" y2="22.2"/>
			<path class="st1" d="M23.6,9.5"/>
			<line class="st1" x1="13.7" y1="10.9" x2="16.6" y2="13.7"/>
			<line class="st1" x1="8.1" y1="5.2" x2="10.9" y2="8.1"/>
			<path class="st1" d="M32.1,6.7"/>
			<polygon class="st1" points="23.6,20.8 23.6,20.8 26.5,23.6 26.5,23.6 			"/>
			<polygon class="st1" points="29.3,15.1 29.3,15.1 32.1,18 32.1,18 			"/>
			<path class="st1" d="M33.5,10.9l3.5,3.5c0.4,0.4,0.4,1,0,1.4L34.9,18"/>
			<path class="st1" d="M19.4,25l3.5,3.5c0.4,0.4,1,0.4,1.4,0l2.1-2.1"/>
			<line class="st1" x1="39.9" y1="31.4" x2="41.3" y2="32.8"/>
			<line class="st1" x1="42.7" y1="34.2" x2="44.1" y2="35.6"/>
			<line class="st1" x1="45.5" y1="37.1" x2="47" y2="38.5"/>
			<polyline class="st1" points="56.2,33.5 59,36.4 44.8,50.5 42,47.7 			"/>
			<polyline class="st1" points="49.8,24.3 48.4,22.9 47,18.7 38.5,10.2 			"/>
			<polyline class="st1" points="27.2,38.5 19.4,30.7 17.3,32.8 13,32.8 13,38.5 27.2,38.5 31.4,39.9 40.6,49.1 57.6,32.1 54,28.6 
							"/>
			<path class="st1" d="M13,35.6"/>
			<line class="st1" x1="29.3" y1="23.6" x2="32.1" y2="20.8"/>
			<path class="st1" d="M66.8,30l-7.1-7.1c-1.2-1.2-3.1-1.2-4.2,0l-4.2,4.2"/>
		</g>
	</g>
</g>
</svg>
