<?xml version="1.0" encoding="utf-8"?>
<!-- Generator: Adobe Illustrator 20.1.0, SVG Export Plug-In . SVG Version: 6.00 Build 0)  -->
<svg version="1.1" id="Layer_1" xmlns="http://www.w3.org/2000/svg" xmlns:xlink="http://www.w3.org/1999/xlink" x="0px" y="0px"
	 viewBox="0 0 64 64" style="enable-background:new 0 0 64 64;" xml:space="preserve">
<style type="text/css">
	.st0{fill:none;stroke:#FFFFFF;stroke-width:2;stroke-linejoin:round;stroke-miterlimit:10;}
</style>
<g id="_x31_7_x5F_brand_x5F_book">
	<g>
		<g>
			<g>
				<g>
					<polyline class="st0" points="38,56 61,56 61,52 					"/>
					<polyline class="st0" points="3,52 3,56 24,56 					"/>
				</g>
			</g>
			<polyline class="st0" points="24,52 1,52 1,9 24,9 			"/>
			<polyline class="st0" points="59,9 63,9 63,52 38,52 			"/>
			<line class="st0" x1="38" y1="9" x2="51" y2="9"/>
			<line class="st0" x1="4" y1="17" x2="24" y2="17"/>
			<line class="st0" x1="4" y1="46" x2="24" y2="46"/>
			<line class="st0" x1="4" y1="42" x2="24" y2="42"/>
			<line class="st0" x1="4" y1="38" x2="24" y2="38"/>
			<line class="st0" x1="38" y1="34" x2="60" y2="34"/>
			<line class="st0" x1="38" y1="38" x2="60" y2="38"/>
			<line class="st0" x1="38" y1="42" x2="60" y2="42"/>
			<line class="st0" x1="38" y1="46" x2="60" y2="46"/>
			<g>
				<polyline class="st0" points="27,54 27,9 35,9 35,54 				"/>
				<line class="st0" x1="31" y1="9" x2="31" y2="54"/>
				<polygon class="st0" points="31,63 27,54 35,54 				"/>
				<path class="st0" d="M27,4v5h8V4c0-1.7-1.3-3-3-3h-2C28.3,1,27,2.3,27,4z"/>
			</g>
			<polygon class="st0" points="59,27 55,23 51,27 51,7 59,7 			"/>
			<rect x="5" y="21" class="st0" width="18" height="13"/>
			<line class="st0" x1="38" y1="15" x2="48" y2="15"/>
			<line class="st0" x1="38" y1="19" x2="48" y2="19"/>
			<line class="st0" x1="38" y1="23" x2="48" y2="23"/>
			<line class="st0" x1="38" y1="30" x2="40" y2="30"/>
			<line class="st0" x1="42" y1="30" x2="44" y2="30"/>
			<line class="st0" x1="46" y1="30" x2="48" y2="30"/>
			<line class="st0" x1="4" y1="13" x2="6" y2="13"/>
			<line class="st0" x1="8" y1="13" x2="10" y2="13"/>
			<line class="st0" x1="12" y1="13" x2="14" y2="13"/>
		</g>
	</g>
</g>
<g id="Layer_1_1_">
</g>
</svg>
