<?xml version="1.0" encoding="utf-8"?>
<!-- Generator: Adobe Illustrator 20.1.0, SVG Export Plug-In . SVG Version: 6.00 Build 0)  -->
<svg version="1.1" id="Layer_1" xmlns="http://www.w3.org/2000/svg" xmlns:xlink="http://www.w3.org/1999/xlink" x="0px" y="0px"
	 viewBox="0 0 1300 900" style="enable-background:new 0 0 1300 900;" xml:space="preserve">
<style type="text/css">
	.st0{fill:none;stroke:#000000;stroke-width:5;stroke-miterlimit:10;}
	.st1{stroke:#000000;stroke-width:5;stroke-miterlimit:10;}
</style>
<polyline class="st0" points="1300,871.2 1068.3,871.2 825.2,450 1068.3,28.8 1300,28.8 "/>
<polyline class="st0" points="1300,28.8 1554.7,28.8 1797.8,450 1554.7,871.2 1300,871.2 "/>
<line class="st0" x1="796.3" y1="49" x2="1057.5" y2="49"/>
<line class="st0" x1="858.2" y1="149" x2="1001" y2="149"/>
<circle class="st0" cx="841.7" cy="149" r="16.5"/>
<circle class="st0" cx="779.8" cy="49" r="16.5"/>
<circle class="st0" cx="718" cy="146.5" r="16.5"/>
<circle class="st0" cx="841.7" cy="93.4" r="16.5"/>
<circle class="st0" cx="601.8" cy="268.4" r="16.5"/>
<circle class="st0" cx="841.7" cy="207.5" r="16.5"/>
<circle class="st0" cx="626.5" cy="106.2" r="16.5"/>
<circle class="st0" cx="775.6" cy="149.6" r="16.5"/>
<circle class="st0" cx="902.6" cy="93.4" r="16.5"/>
<circle class="st0" cx="718" cy="49" r="16.5"/>
<circle class="st0" cx="656.7" cy="268.4" r="16.5"/>
<line class="st0" x1="769.7" y1="93.4" x2="826.4" y2="93.4"/>
<line class="st1" x1="728.6" y1="135.9" x2="771.6" y2="92.9"/>
<line class="st0" x1="919.1" y1="93.4" x2="1031" y2="93.4"/>
<line class="st1" x1="731.1" y1="194.1" x2="765.6" y2="159.6"/>
<circle class="st0" cx="718" cy="207.5" r="16.5"/>
<line class="st0" x1="735.5" y1="49" x2="763.3" y2="49"/>
<line class="st0" x1="634.8" y1="575" x2="896" y2="575"/>
<line class="st0" x1="696.7" y1="477.5" x2="839.5" y2="477.5"/>
<circle class="st0" cx="680.2" cy="477.5" r="16.5"/>
<circle class="st0" cx="618.3" cy="575" r="16.5"/>
<circle class="st0" cx="556.5" cy="477.5" r="16.5"/>
<circle class="st0" cx="680.2" cy="530.6" r="16.5"/>
<circle class="st0" cx="624.9" cy="477.5" r="16.5"/>
<circle class="st0" cx="741.1" cy="530.6" r="16.5"/>
<circle class="st0" cx="556.5" cy="575" r="16.5"/>
<line class="st0" x1="608.2" y1="530.6" x2="664.9" y2="530.6"/>
<line class="st1" x1="567.1" y1="488.1" x2="610.1" y2="531.1"/>
<line class="st0" x1="757.6" y1="530.6" x2="869.5" y2="530.6"/>
<line class="st1" x1="568.1" y1="420.7" x2="613.2" y2="465.8"/>
<circle class="st0" cx="556.5" cy="411.7" r="16.5"/>
<line class="st0" x1="574" y1="575" x2="601.8" y2="575"/>
<line class="st0" x1="858.2" y1="207.5" x2="961.5" y2="207.5"/>
<line class="st0" x1="734.5" y1="268.4" x2="928.9" y2="268.4"/>
<circle class="st0" cx="718" cy="268.4" r="16.5"/>
<line class="st1" x1="656.7" y1="207.5" x2="656.7" y2="251.9"/>
<line class="st1" x1="601.8" y1="207.5" x2="601.8" y2="251.9"/>
<line class="st1" x1="626.2" y1="178.3" x2="657.6" y2="209.8"/>
<line class="st1" x1="570.5" y1="178.3" x2="602" y2="209.8"/>
<line class="st1" x1="571" y1="89.7" x2="571" y2="180.6"/>
<line class="st1" x1="626.5" y1="120.5" x2="626.5" y2="180.6"/>
<circle class="st0" cx="571" cy="75.9" r="16.5"/>
<circle class="st0" cx="894.7" cy="667.4" r="16.5"/>
<circle class="st0" cx="699.5" cy="642.7" r="16.5"/>
<circle class="st0" cx="861.7" cy="612.5" r="16.5"/>
<line class="st1" x1="800.7" y1="612.5" x2="845.2" y2="612.5"/>
<line class="st1" x1="800.7" y1="667.4" x2="878.2" y2="667.4"/>
<line class="st1" x1="771.6" y1="643.1" x2="803" y2="611.6"/>
<line class="st1" x1="771.6" y1="698.7" x2="803" y2="667.3"/>
<line class="st1" x1="683" y1="698.2" x2="773.9" y2="698.2"/>
<line class="st1" x1="713.8" y1="642.7" x2="773.9" y2="642.7"/>
<circle class="st0" cx="669.2" cy="698.2" r="16.5"/>
<ellipse transform="matrix(0.7071 -0.7071 0.7071 0.7071 -243.7371 862.6537)" class="st0" cx="919.4" cy="725.5" rx="16.5" ry="16.5"/>
<line class="st1" x1="853.1" y1="725.9" x2="901.9" y2="725.9"/>
<ellipse transform="matrix(0.7071 -0.7071 0.7071 0.7071 -270.4056 805.3373)" class="st0" cx="836.9" cy="729.1" rx="16.5" ry="16.5"/>
<ellipse transform="matrix(0.7071 -0.7071 0.7071 0.7071 -266.0653 639.5905)" class="st0" cx="639" cy="641" rx="16.5" ry="16.5"/>
<line class="st1" x1="574" y1="641.3" x2="621.5" y2="641.3"/>
<ellipse transform="matrix(0.7071 -0.7071 0.7071 0.7071 -291.3301 582.1294)" class="st0" cx="557" cy="642.7" rx="16.5" ry="16.5"/>
<circle class="st0" cx="495.5" cy="575" r="16.5"/>
<circle class="st0" cx="470.9" cy="737.2" r="16.5"/>
<circle class="st0" cx="440.6" cy="575" r="16.5"/>
<line class="st1" x1="440.6" y1="636" x2="440.6" y2="591.5"/>
<line class="st1" x1="495.5" y1="636" x2="495.5" y2="591.5"/>
<line class="st1" x1="471.2" y1="665.1" x2="439.8" y2="633.7"/>
<line class="st1" x1="526.8" y1="665.1" x2="495.4" y2="633.7"/>
<line class="st1" x1="526.4" y1="753.7" x2="526.4" y2="662.8"/>
<line class="st1" x1="470.9" y1="722.9" x2="470.9" y2="662.8"/>
<circle class="st0" cx="526.4" cy="767.5" r="16.5"/>
<circle class="st0" cx="600.9" cy="700.4" r="16.5"/>
<circle class="st0" cx="724.6" cy="753.5" r="16.5"/>
<line class="st0" x1="652.6" y1="753.5" x2="709.3" y2="753.5"/>
<line class="st1" x1="611.5" y1="711" x2="654.6" y2="754"/>
<circle class="st0" cx="601.8" cy="761.8" r="16.5"/>
<circle class="st0" cx="783.6" cy="816.5" r="16.5"/>
<line class="st0" x1="653.5" y1="814.9" x2="767.1" y2="816.5"/>
<line class="st1" x1="612.5" y1="772.4" x2="655.5" y2="815.4"/>
<ellipse transform="matrix(0.7071 -0.7071 0.7071 0.7071 95.0605 381.9004)" class="st0" cx="508.5" cy="76.2" rx="16.5" ry="16.5"/>
<line class="st1" x1="508.9" y1="141.2" x2="508.9" y2="93.8"/>
<ellipse transform="matrix(0.7071 -0.7071 0.7071 0.7071 37.5995 407.1652)" class="st0" cx="510.3" cy="158.2" rx="16.5" ry="16.5"/>
</svg>
