<svg id="Layer_1" data-name="Layer 1" xmlns="http://www.w3.org/2000/svg" viewBox="0 0 64.09 46.86"><defs><style>.cls-1,.cls-2{fill:none;stroke:#000;}.cls-1{stroke-miterlimit:10;}</style></defs><title>codeGraphic</title><polyline id="svg_2" data-name="svg 2" class="cls-1" points="13.38 0.5 0.5 0.5 0.5 46.36 63.59 46.36 63.59 0.5 13.38 0.5"/><line id="svg_3" data-name="svg 3" class="cls-1" x1="0.74" y1="6.87" x2="63.1" y2="6.87"/><circle id="svg_4" data-name="svg 4" class="cls-1" cx="49.64" cy="3.67" r="0.79"/><circle id="svg_5" data-name="svg 5" class="cls-1" cx="53.98" cy="3.67" r="0.79"/><circle id="svg_6" data-name="svg 6" class="cls-1" cx="58.31" cy="3.67" r="0.79"/><polyline id="svg_8" data-name="svg 8" class="cls-1" points="57.23 42.14 60.3 39.07 57.23 35.99"/><polyline id="svg_10" data-name="svg 10" class="cls-1" points="51.28 35.91 48.14 39.04 51.28 42.17"/><line id="svg_11" data-name="svg 11" class="cls-1" x1="55.55" y1="34.8" x2="52.92" y2="43.79"/><line id="svg_12" data-name="svg 12" class="cls-2" x1="4.89" y1="11.31" x2="32.29" y2="11.31"/><line id="svg_13" data-name="svg 13" class="cls-2" x1="8.51" y1="14.93" x2="35.91" y2="14.93"/><line id="svg_14" data-name="svg 14" class="cls-2" x1="13.46" y1="18.67" x2="33.85" y2="18.67"/><line id="svg_15" data-name="svg 15" class="cls-2" x1="4.89" y1="11.31" x2="32.29" y2="11.31"/><line id="svg_16" data-name="svg 16" class="cls-2" x1="17.32" y1="22.29" x2="44.71" y2="22.29"/><line id="svg_17" data-name="svg 17" class="cls-2" x1="17.38" y1="25.93" x2="44.77" y2="25.93"/><line id="svg_18" data-name="svg 18" class="cls-2" x1="13.97" y1="29.64" x2="34.36" y2="29.64"/><line id="svg_19" data-name="svg 19" class="cls-2" x1="8.77" y1="33.59" x2="36.16" y2="33.59"/></svg>