<?xml version="1.0" encoding="utf-8"?>
<!-- Generator: Adobe Illustrator 20.1.0, SVG Export Plug-In . SVG Version: 6.00 Build 0)  -->
<svg version="1.1" id="Layer_1" xmlns="http://www.w3.org/2000/svg" xmlns:xlink="http://www.w3.org/1999/xlink" x="0px" y="0px"
	 viewBox="0 0 64 56" style="enable-background:new 0 0 64 56;" xml:space="preserve">
<style type="text/css">
	.st0{fill:none;stroke:#FFFFFF;stroke-width:2;stroke-miterlimit:10;}
	.st1{fill:none;stroke:#FFFFFF;stroke-width:2;stroke-linejoin:round;stroke-miterlimit:10;}
</style>
<g id="_x32_0_x5F_digital_x5F_camera">
	<g>
		<g>
			<path class="st0" d="M22,6l3-5h14l6,10h16c1.1,0,2,0.9,2,2v40c0,1.1-0.9,2-2,2H3c-1.1,0-2-0.9-2-2V13c0-1.1,0.9-2,2-2h1"/>
			<polygon class="st0" points="19,11 7,11 7,7 19,7 19,9 			"/>
			<line class="st0" x1="27" y1="5" x2="37" y2="5"/>
			<circle class="st0" cx="32" cy="32" r="17"/>
			<line class="st0" x1="1" y1="23" x2="17" y2="23"/>
			<line class="st0" x1="47" y1="23" x2="63" y2="23"/>
			<line class="st0" x1="1" y1="41" x2="17" y2="41"/>
			<line class="st0" x1="47" y1="41" x2="63" y2="41"/>
			<circle class="st0" cx="32" cy="32" r="13"/>
			<path class="st0" d="M23,32c0-5,4-9,9-9"/>
			<line class="st0" x1="6" y1="15" x2="8" y2="15"/>
			<line class="st0" x1="52" y1="15" x2="60" y2="15"/>
			<line class="st0" x1="4" y1="32" x2="6" y2="32"/>
			<line class="st0" x1="8" y1="32" x2="10" y2="32"/>
			<line class="st0" x1="54" y1="32" x2="56" y2="32"/>
			<line class="st0" x1="58" y1="32" x2="60" y2="32"/>
		</g>
		<rect x="49" y="9" class="st1" width="10" height="2"/>
	</g>
</g>
<g id="Layer_1_1_">
</g>
</svg>
