<?xml version="1.0" ?><!DOCTYPE svg  PUBLIC '-//W3C//DTD SVG 1.1//EN'  'http://www.w3.org/Graphics/SVG/1.1/DTD/svg11.dtd'><svg height="56px" style="enable-background:new 0 0 64 56;" version="1.1" viewBox="0 0 64 56" width="64px" xml:space="preserve" xmlns="http://www.w3.org/2000/svg" xmlns:xlink="http://www.w3.org/1999/xlink"><g id="_x32_0_x5F_digital_x5F_camera"><g><g><path d="M22,6l3-5h14l6,10h16c1.104,0,2,0.896,2,2v40     c0,1.104-0.896,2-2,2H3c-1.104,0-2-0.896-2-2V13c0-1.104,0.896-2,2-2h1" style="fill:none;stroke:#363F40;stroke-width:2;stroke-miterlimit:10;"/><polygon points="19,11 7,11 7,7 19,7 19,9    " style="fill:none;stroke:#363F40;stroke-width:2;stroke-miterlimit:10;"/><line style="fill:none;stroke:#363F40;stroke-width:2;stroke-miterlimit:10;" x1="27" x2="37" y1="5" y2="5"/><circle cx="32" cy="32" r="17" style="fill:none;stroke:#363F40;stroke-width:2;stroke-miterlimit:10;"/><line style="fill:none;stroke:#363F40;stroke-width:2;stroke-miterlimit:10;" x1="1" x2="17" y1="23" y2="23"/><line style="fill:none;stroke:#363F40;stroke-width:2;stroke-miterlimit:10;" x1="47" x2="63" y1="23" y2="23"/><line style="fill:none;stroke:#363F40;stroke-width:2;stroke-miterlimit:10;" x1="1" x2="17" y1="41" y2="41"/><line style="fill:none;stroke:#363F40;stroke-width:2;stroke-miterlimit:10;" x1="47" x2="63" y1="41" y2="41"/><circle cx="32" cy="32" r="13" style="fill:none;stroke:#363F40;stroke-width:2;stroke-miterlimit:10;"/><path d="M23,32c0-4.971,4.029-9,9-9" style="fill:none;stroke:#363F40;stroke-width:2;stroke-miterlimit:10;"/><line style="fill:none;stroke:#363F40;stroke-width:2;stroke-miterlimit:10;" x1="6" x2="8" y1="15" y2="15"/><line style="fill:none;stroke:#363F40;stroke-width:2;stroke-miterlimit:10;" x1="52" x2="60" y1="15" y2="15"/><line style="fill:none;stroke:#363F40;stroke-width:2;stroke-miterlimit:10;" x1="4" x2="6" y1="32" y2="32"/><line style="fill:none;stroke:#363F40;stroke-width:2;stroke-miterlimit:10;" x1="8" x2="10" y1="32" y2="32"/><line style="fill:none;stroke:#363F40;stroke-width:2;stroke-miterlimit:10;" x1="54" x2="56" y1="32" y2="32"/><line style="fill:none;stroke:#363F40;stroke-width:2;stroke-miterlimit:10;" x1="58" x2="60" y1="32" y2="32"/></g><rect height="2" style="fill:none;stroke:#363F40;stroke-width:2;stroke-linejoin:round;stroke-miterlimit:10;" width="10" x="49" y="9"/></g></g><g id="Layer_1"/></svg>