<?xml version="1.0" encoding="utf-8"?>
<!-- Generator: Adobe Illustrator 21.1.0, SVG Export Plug-In . SVG Version: 6.00 Build 0)  -->
<svg version="1.1" id="Layer_1" xmlns="http://www.w3.org/2000/svg" xmlns:xlink="http://www.w3.org/1999/xlink" x="0px" y="0px"
	 viewBox="0 0 32 23" style="enable-background:new 0 0 32 23;" xml:space="preserve">
<g id="OUTLINE">
	<g>
		<g>
			<path d="M29.5,23H2.5C1.1,23,0,21.9,0,20.5V2.5C0,1.1,1.1,0,2.5,0h27.1C30.9,0,32,1.1,32,2.5v18.1C32,21.9,30.9,23,29.5,23z
				 M2.5,1C1.7,1,1,1.7,1,2.5v18.1C1,21.3,1.7,22,2.5,22h27.1c0.8,0,1.5-0.7,1.5-1.5V2.5C31,1.7,30.3,1,29.5,1H2.5z"/>
		</g>
		<g>
			<polygon points="16,14.1 0.7,1.9 1.3,1.1 16,12.9 30.7,1.1 31.3,1.9 			"/>
		</g>
		<g>
			<rect x="25.2" y="7.8" transform="matrix(0.7559 -0.6546 0.6546 0.7559 -4.0882 20.6575)" width="1" height="16"/>
		</g>
		<g>
			<rect x="-1.7" y="15.3" transform="matrix(0.6545 -0.7561 0.7561 0.6545 -9.761 10.2576)" width="16" height="1"/>
		</g>
	</g>
</g>
</svg>
