<?xml version="1.0" encoding="utf-8"?>
<!-- Generator: Adobe Illustrator 21.1.0, SVG Export Plug-In . SVG Version: 6.00 Build 0)  -->
<svg version="1.1" id="Layer_1" xmlns="http://www.w3.org/2000/svg" xmlns:xlink="http://www.w3.org/1999/xlink" x="0px" y="0px"
	 viewBox="0 0 27 32" style="enable-background:new 0 0 27 32;" xml:space="preserve">
<style type="text/css">
	.st0{fill:#231F20;}
</style>
<g id="Layer_4_copy_2">
	<g>
		<path class="st0" d="M27,24.5V0H13.5H0v24.5L13.5,32L27,24.5z M1,1h12.5H26v22.9l-12.5,6.9L1,23.9V1z"/>
		<path class="st0" d="M13.8,22.5H16v-4c0-0.4-0.2-1.4-0.6-1.7c2.5-0.3,4.5-1.7,4.5-4.5s-0.6-3.4-1.1-4c0.1-0.3,0.6-1.3,0-2.8
			c0,0-1.1,0-2.2,1.7c-0.6-0.6-2.3-0.6-2.8-0.6c-0.6,0-2.3,0-2.8,0.6C9.8,5.5,8.7,5.5,8.7,5.5C8.1,7,8.5,8.1,8.7,8.3
			c-0.6,0.6-1.1,1.1-1.1,4c0,2.8,2.1,4.3,4.5,4.5c-0.3,0.3-0.6,1.1-0.6,1.7c-0.6,0.3-2.4,0.6-3.4-1.1c0,0-0.6-1.1-1.7-1.1
			c0,0-1.1-0.1,0,0.6c0,0,0.6,0.6,1.1,1.7c0,0,0.9,2.4,4,1.7c0,0.9,0,2.3,0,2.3L13.8,22.5L13.8,22.5z"/>
	</g>
</g>
</svg>
