<?xml version="1.0" encoding="utf-8"?>
<!-- Generator: Adobe Illustrator 20.1.0, SVG Export Plug-In . SVG Version: 6.00 Build 0)  -->
<svg version="1.1" id="Layer_1" xmlns="http://www.w3.org/2000/svg" xmlns:xlink="http://www.w3.org/1999/xlink" x="0px" y="0px"
	 viewBox="0 0 48 64" style="enable-background:new 0 0 48 64;" xml:space="preserve">
<style type="text/css">
	.st0{fill:none;stroke:#FFFFFF;stroke-width:2;stroke-miterlimit:10;}
</style>
<g id="_x32_0_x5F_hi-fi_x5F_audio_x5F_speaker">
	<g>
		<g>
			<path class="st0" d="M47,62c0,0.6-0.4,1-1,1H2c-0.6,0-1-0.4-1-1V2c0-0.6,0.4-1,1-1h44c0.6,0,1,0.4,1,1V62z"/>
			<circle class="st0" cx="24" cy="40" r="15"/>
			<circle class="st0" cx="24" cy="40" r="11"/>
			<circle class="st0" cx="24" cy="14" r="5"/>
			<line class="st0" x1="4" y1="5" x2="6" y2="5"/>
			<line class="st0" x1="42" y1="5" x2="44" y2="5"/>
			<line class="st0" x1="4" y1="59" x2="6" y2="59"/>
			<line class="st0" x1="42" y1="59" x2="44" y2="59"/>
			<line class="st0" x1="16" y1="14" x2="14" y2="14"/>
			<line class="st0" x1="34" y1="14" x2="32" y2="14"/>
			<circle class="st0" cx="24" cy="40" r="4"/>
			<circle class="st0" cx="24" cy="14" r="1"/>
		</g>
	</g>
</g>
<g id="Layer_1_1_">
</g>
</svg>
