<?xml version="1.0" ?><!DOCTYPE svg  PUBLIC '-//W3C//DTD SVG 1.1//EN'  'http://www.w3.org/Graphics/SVG/1.1/DTD/svg11.dtd'><svg height="64px" style="enable-background:new 0 0 48 64;" version="1.1" viewBox="0 0 48 64" width="48px" xml:space="preserve" xmlns="http://www.w3.org/2000/svg" xmlns:xlink="http://www.w3.org/1999/xlink"><g id="_x32_0_x5F_hi-fi_x5F_audio_x5F_speaker"><g><g><path d="M47,62c0,0.553-0.447,1-1,1H2     c-0.553,0-1-0.447-1-1V2c0-0.553,0.447-1,1-1h44c0.553,0,1,0.447,1,1V62z" style="fill:none;stroke:#363F40;stroke-width:2;stroke-miterlimit:10;"/><circle cx="24" cy="40" r="15" style="fill:none;stroke:#363F40;stroke-width:2;stroke-miterlimit:10;"/><circle cx="24" cy="40" r="11" style="fill:none;stroke:#363F40;stroke-width:2;stroke-miterlimit:10;"/><circle cx="24" cy="14" r="5" style="fill:none;stroke:#363F40;stroke-width:2;stroke-miterlimit:10;"/><line style="fill:none;stroke:#363F40;stroke-width:2;stroke-miterlimit:10;" x1="4" x2="6" y1="5" y2="5"/><line style="fill:none;stroke:#363F40;stroke-width:2;stroke-miterlimit:10;" x1="42" x2="44" y1="5" y2="5"/><line style="fill:none;stroke:#363F40;stroke-width:2;stroke-miterlimit:10;" x1="4" x2="6" y1="59" y2="59"/><line style="fill:none;stroke:#363F40;stroke-width:2;stroke-miterlimit:10;" x1="42" x2="44" y1="59" y2="59"/><line style="fill:none;stroke:#363F40;stroke-width:2;stroke-miterlimit:10;" x1="16" x2="14" y1="14" y2="14"/><line style="fill:none;stroke:#363F40;stroke-width:2;stroke-miterlimit:10;" x1="34" x2="32" y1="14" y2="14"/><circle cx="24" cy="40" r="4" style="fill:none;stroke:#363F40;stroke-width:2;stroke-miterlimit:10;"/><circle cx="24" cy="14" r="1" style="fill:none;stroke:#363F40;stroke-width:2;stroke-miterlimit:10;"/></g></g></g><g id="Layer_1"/></svg>