<?xml version="1.0" ?><!DOCTYPE svg  PUBLIC '-//W3C//DTD SVG 1.1//EN'  'http://www.w3.org/Graphics/SVG/1.1/DTD/svg11.dtd'><svg height="44px" style="enable-background:new 0 0 64 44;" version="1.1" viewBox="0 0 64 44" width="64px" xml:space="preserve" xmlns="http://www.w3.org/2000/svg" xmlns:xlink="http://www.w3.org/1999/xlink"><g id="_x32_0_x5F_laptop_x5F_computer"><g><g><polygon points="59,43 5,43 1,39 1,37 25,37 27,39      37,39 39,37 63,37 63,39    " style="fill:none;stroke:#363F40;stroke-width:2;stroke-miterlimit:10;"/><path d="M59,34V4c0-1.657-1.344-3-3-3H8     C6.344,1,5,2.343,5,4v30" style="fill:none;stroke:#363F40;stroke-width:2;stroke-miterlimit:10;"/><line style="fill:none;stroke:#363F40;stroke-width:2;stroke-miterlimit:10;" x1="27" x2="29" y1="31" y2="31"/><line style="fill:none;stroke:#363F40;stroke-width:2;stroke-miterlimit:10;" x1="23" x2="25" y1="31" y2="31"/><line style="fill:none;stroke:#363F40;stroke-width:2;stroke-miterlimit:10;" x1="31" x2="33" y1="31" y2="31"/><line style="fill:none;stroke:#363F40;stroke-width:2;stroke-miterlimit:10;" x1="35" x2="37" y1="31" y2="31"/><line style="fill:none;stroke:#363F40;stroke-width:2;stroke-miterlimit:10;" x1="39" x2="41" y1="31" y2="31"/><polyline points="21,31 9,31 9,5 55,5 55,31 43,31         " style="fill:none;stroke:#363F40;stroke-width:2;stroke-miterlimit:10;"/></g></g></g><g id="Layer_1"/></svg>