<?xml version="1.0" encoding="utf-8"?>
<!-- Generator: Adobe Illustrator 20.1.0, SVG Export Plug-In . SVG Version: 6.00 Build 0)  -->
<svg version="1.1" id="Layer_1" xmlns="http://www.w3.org/2000/svg" xmlns:xlink="http://www.w3.org/1999/xlink" x="0px" y="0px"
	 viewBox="0 0 64 44" style="enable-background:new 0 0 64 44;" xml:space="preserve">
<style type="text/css">
	.st0{fill:none;stroke:#FFFFFF;stroke-width:2;stroke-miterlimit:10;}
</style>
<g id="_x32_0_x5F_laptop_x5F_computer">
	<g>
		<g>
			<polygon class="st0" points="59,43 5,43 1,39 1,37 25,37 27,39 37,39 39,37 63,37 63,39 			"/>
			<path class="st0" d="M59,34V4c0-1.7-1.3-3-3-3H8C6.3,1,5,2.3,5,4v30"/>
			<line class="st0" x1="27" y1="31" x2="29" y2="31"/>
			<line class="st0" x1="23" y1="31" x2="25" y2="31"/>
			<line class="st0" x1="31" y1="31" x2="33" y2="31"/>
			<line class="st0" x1="35" y1="31" x2="37" y2="31"/>
			<line class="st0" x1="39" y1="31" x2="41" y2="31"/>
			<polyline class="st0" points="21,31 9,31 9,5 55,5 55,31 43,31 			"/>
		</g>
	</g>
</g>
<g id="Layer_1_1_">
</g>
</svg>
