<?xml version="1.0" encoding="utf-8"?>
<!-- Generator: Adobe Illustrator 21.1.0, SVG Export Plug-In . SVG Version: 6.00 Build 0)  -->
<svg version="1.1" id="Layer_1" xmlns="http://www.w3.org/2000/svg" xmlns:xlink="http://www.w3.org/1999/xlink" x="0px" y="0px"
	 viewBox="0 0 27 32" style="enable-background:new 0 0 27 32;" xml:space="preserve">
<g id="Layer_4_copy_2">
	<g>
		<path d="M27,24.5V0H13.5H0v24.5L13.5,32L27,24.5z M1,1h12.5H26v22.9l-12.5,6.9L1,23.9V1z"/>
		<path d="M14.4,19.9v-5.2c0-0.3,0-0.6,0.1-0.8c0.2-0.6,0.7-1.1,1.6-1.1c1.1,0,1.6,0.9,1.6,2.1v5h3.1l0,0v-5.4
			c0-2.9-1.5-4.2-3.6-4.2c-1.6,0-2.4,0.9-2.8,1.5v-1.3h-3.1c0,0.9,0,9.3,0,9.3S14.4,19.9,14.4,19.9z"/>
		<rect x="6.4" y="10.6" width="3.1" height="9.3"/>
		<path d="M8,6.1c-1.1,0-1.8,0.7-1.8,1.6c0,0.9,0.7,1.6,1.7,1.6h0c1.1,0,1.8-0.7,1.8-1.6C9.7,6.8,9.1,6.1,8,6.1z"/>
	</g>
</g>
</svg>
