<?xml version="1.0" encoding="utf-8"?>
<!-- Generator: Adobe Illustrator 20.1.0, SVG Export Plug-In . SVG Version: 6.00 Build 0)  -->
<svg version="1.1" id="Layer_1" xmlns="http://www.w3.org/2000/svg" xmlns:xlink="http://www.w3.org/1999/xlink" x="0px" y="0px"
	 viewBox="0 0 46 64" style="enable-background:new 0 0 46 64;" xml:space="preserve">
<style type="text/css">
	.st0{fill:none;stroke:#FFFFFF;stroke-width:2;stroke-miterlimit:10;}
</style>
<g id="_x31_4_x5F_mobile_x5F_games">
	<g>
		<polyline class="st0" points="30,45 36,45 36,42 29,35 25,19 21,19 17,35 10,42 10,45 16,45 		"/>
		<line class="st0" x1="27" y1="44" x2="27" y2="48"/>
		<line class="st0" x1="19" y1="44" x2="19" y2="48"/>
		<line class="st0" x1="23" y1="40" x2="23" y2="48"/>
		<line class="st0" x1="12" y1="40" x2="12" y2="32"/>
		<line class="st0" x1="34" y1="40" x2="34" y2="32"/>
		<line class="st0" x1="34" y1="24" x2="34" y2="22"/>
		<line class="st0" x1="34" y1="28" x2="34" y2="26"/>
		<line class="st0" x1="34" y1="20" x2="34" y2="18"/>
		<line class="st0" x1="12" y1="24" x2="12" y2="22"/>
		<line class="st0" x1="12" y1="28" x2="12" y2="26"/>
		<line class="st0" x1="12" y1="20" x2="12" y2="18"/>
		<line class="st0" x1="23" y1="30" x2="23" y2="34"/>
		<line class="st0" x1="1" y1="9" x2="45" y2="9"/>
		<line class="st0" x1="1" y1="55" x2="45" y2="55"/>
		<path class="st0" d="M45,58V6c0-2.8-2.2-5-5-5H6C3.2,1,1,3.2,1,6v52c0,2.8,2.2,5,5,5h34C42.8,63,45,60.8,45,58z"/>
		<line class="st0" x1="17" y1="5" x2="29" y2="5"/>
		<line class="st0" x1="21" y1="59" x2="25" y2="59"/>
	</g>
</g>
<g id="Layer_1_1_">
</g>
</svg>
