<?xml version="1.0" ?><!DOCTYPE svg  PUBLIC '-//W3C//DTD SVG 1.1//EN'  'http://www.w3.org/Graphics/SVG/1.1/DTD/svg11.dtd'><svg height="64px" style="enable-background:new 0 0 46 64;" version="1.1" viewBox="0 0 46 64" width="46px" xml:space="preserve" xmlns="http://www.w3.org/2000/svg" xmlns:xlink="http://www.w3.org/1999/xlink"><g id="_x31_4_x5F_mobile_x5F_games"><g><polyline points="30,45 36,45 36,42 29,35 25,19 21,19     17,35 10,42 10,45 16,45   " style="fill:none;stroke:#363F40;stroke-width:2;stroke-miterlimit:10;"/><line style="fill:none;stroke:#363F40;stroke-width:2;stroke-miterlimit:10;" x1="27" x2="27" y1="44" y2="48"/><line style="fill:none;stroke:#363F40;stroke-width:2;stroke-miterlimit:10;" x1="19" x2="19" y1="44" y2="48"/><line style="fill:none;stroke:#363F40;stroke-width:2;stroke-miterlimit:10;" x1="23" x2="23" y1="40" y2="48"/><line style="fill:none;stroke:#363F40;stroke-width:2;stroke-miterlimit:10;" x1="12" x2="12" y1="40" y2="32"/><line style="fill:none;stroke:#363F40;stroke-width:2;stroke-miterlimit:10;" x1="34" x2="34" y1="40" y2="32"/><line style="fill:none;stroke:#363F40;stroke-width:2;stroke-miterlimit:10;" x1="34" x2="34" y1="24" y2="22"/><line style="fill:none;stroke:#363F40;stroke-width:2;stroke-miterlimit:10;" x1="34" x2="34" y1="28" y2="26"/><line style="fill:none;stroke:#363F40;stroke-width:2;stroke-miterlimit:10;" x1="34" x2="34" y1="20" y2="18"/><line style="fill:none;stroke:#363F40;stroke-width:2;stroke-miterlimit:10;" x1="12" x2="12" y1="24" y2="22"/><line style="fill:none;stroke:#363F40;stroke-width:2;stroke-miterlimit:10;" x1="12" x2="12" y1="28" y2="26"/><line style="fill:none;stroke:#363F40;stroke-width:2;stroke-miterlimit:10;" x1="12" x2="12" y1="20" y2="18"/><line style="fill:none;stroke:#363F40;stroke-width:2;stroke-miterlimit:10;" x1="23" x2="23" y1="30" y2="34"/><line style="fill:none;stroke:#363F40;stroke-width:2;stroke-miterlimit:10;" x1="1" x2="45" y1="9" y2="9"/><line style="fill:none;stroke:#363F40;stroke-width:2;stroke-miterlimit:10;" x1="1" x2="45" y1="55" y2="55"/><path d="M45,58V6c0-2.762-2.238-5-5-5H6    C3.238,1,1,3.238,1,6v52c0,2.762,2.238,5,5,5h34C42.762,63,45,60.762,45,58z" style="fill:none;stroke:#363F40;stroke-width:2;stroke-miterlimit:10;"/><line style="fill:none;stroke:#363F40;stroke-width:2;stroke-miterlimit:10;" x1="17" x2="29" y1="5" y2="5"/><line style="fill:none;stroke:#363F40;stroke-width:2;stroke-miterlimit:10;" x1="21" x2="25" y1="59" y2="59"/></g></g><g id="Layer_1"/></svg>