<?xml version="1.0" encoding="utf-8"?>
<!-- Generator: Adobe Illustrator 21.1.0, SVG Export Plug-In . SVG Version: 6.00 Build 0)  -->
<svg version="1.1" id="line-icon-105" xmlns="http://www.w3.org/2000/svg" xmlns:xlink="http://www.w3.org/1999/xlink" x="0px"
	 y="0px" viewBox="0 0 48 48" style="enable-background:new 0 0 48 48;" xml:space="preserve">
<g>
	<path d="M8,0v10H0v18h8v20h28l12-12V0H8z M2,12h30v14H2V12z M36,45.2V36h9.2L36,45.2z M46,34H34v12H10V28h24V10H10V2h36V34z"/>
	<path d="M9.1,14.7c0.4,0,0.8,0.1,1.1,0.2s0.5,0.3,0.7,0.6s0.3,0.5,0.4,0.8c0.1,0.3,0.1,0.6,0.1,0.9c0,0.4-0.1,0.8-0.2,1.2
		c-0.1,0.3-0.3,0.6-0.6,0.8c-0.2,0.2-0.5,0.4-0.9,0.5c-0.3,0.1-0.7,0.2-1.1,0.2H7.8v3.4H6.1v-8.6L9.1,14.7z M8.6,18.6
		c0.3,0,0.6-0.1,0.8-0.3c0.2-0.2,0.3-0.5,0.3-1c0-0.4-0.1-0.8-0.3-1C9.3,16.1,9,16,8.5,16H7.8v2.6H8.6z"/>
	<path d="M16.4,14.7c0.6,0,1.1,0.1,1.5,0.3c0.4,0.2,0.7,0.5,0.9,0.8c0.2,0.4,0.3,0.8,0.4,1.3c0.1,0.5,0.1,1.1,0.1,1.7
		c0,0.8,0,1.4-0.1,2c-0.1,0.6-0.2,1-0.5,1.4c-0.2,0.4-0.5,0.6-0.9,0.8s-0.9,0.3-1.4,0.3h-2.7v-8.6H16.4z M16.1,22
		c0.3,0,0.5-0.1,0.7-0.2s0.3-0.3,0.4-0.5c0.1-0.2,0.2-0.6,0.2-1c0-0.4,0.1-0.9,0.1-1.5c0-0.5,0-0.9,0-1.3c0-0.4-0.1-0.7-0.2-0.9
		c-0.1-0.2-0.2-0.4-0.4-0.5c-0.2-0.1-0.5-0.2-0.8-0.2h-0.7v6L16.1,22z"/>
	<path d="M26.4,14.7v1.4h-3.1v2h2.9v1.4h-2.9v3.7h-1.7v-8.6L26.4,14.7z"/>
</g>
</svg>
