<?xml version="1.0" ?><!DOCTYPE svg  PUBLIC '-//W3C//DTD SVG 1.1//EN'  'http://www.w3.org/Graphics/SVG/1.1/DTD/svg11.dtd'><svg height="62px" id="_x34_0_x5F_eyetap_x5F_augmentation" style="enable-background:new 0 0 64 62;" version="1.1" viewBox="0 0 64 62" width="64px" xml:space="preserve" xmlns="http://www.w3.org/2000/svg" xmlns:xlink="http://www.w3.org/1999/xlink"><g><g><path d="M63,32    c0,0-13.879,17-31,17S1,32,1,32s13.879-17,31-17S63,32,63,32z" style="fill:none;stroke:#222829;stroke-width:2;stroke-linejoin:round;stroke-miterlimit:10;"/><circle cx="32" cy="32" r="17" style="fill:none;stroke:#222829;stroke-width:2;stroke-linejoin:round;stroke-miterlimit:10;"/><circle cx="32" cy="32" r="13" style="fill:none;stroke:#222829;stroke-width:2;stroke-linejoin:round;stroke-miterlimit:10;"/><line style="fill:none;stroke:#222829;stroke-width:2;stroke-linejoin:round;stroke-miterlimit:10;" x1="27" x2="25" y1="26" y2="26"/><path d="M32,39c-3.866,0-7-3.134-7-7v-1    c3.313,0,6-2.687,6-6h1c3.866,0,7,3.134,7,7" style="fill:none;stroke:#222829;stroke-width:2;stroke-miterlimit:10;"/><circle cx="36" cy="36" r="3" style="fill:none;stroke:#222829;stroke-width:2;stroke-miterlimit:10;"/></g><g><polyline points="20,13 14,7 0,7   " style="fill:none;stroke:#222829;stroke-width:2;stroke-miterlimit:10;"/><line style="fill:none;stroke:#222829;stroke-width:2;stroke-miterlimit:10;" x1="0" x2="2" y1="3" y2="3"/><line style="fill:none;stroke:#222829;stroke-width:2;stroke-miterlimit:10;" x1="4" x2="6" y1="3" y2="3"/><line style="fill:none;stroke:#222829;stroke-width:2;stroke-miterlimit:10;" x1="8" x2="10" y1="3" y2="3"/></g><g><polyline points="44,51 50,57 64,57   " style="fill:none;stroke:#222829;stroke-width:2;stroke-miterlimit:10;"/><line style="fill:none;stroke:#222829;stroke-width:2;stroke-miterlimit:10;" x1="64" x2="62" y1="61" y2="61"/><line style="fill:none;stroke:#222829;stroke-width:2;stroke-miterlimit:10;" x1="60" x2="58" y1="61" y2="61"/><line style="fill:none;stroke:#222829;stroke-width:2;stroke-miterlimit:10;" x1="56" x2="54" y1="61" y2="61"/></g><g><polyline points="35,12 35,1 63,1 63,24   " style="fill:none;stroke:#222829;stroke-width:2;stroke-miterlimit:10;"/><path d="M55,17c2.209,0,4-1.791,4-4s-1.791-4-4-4    s-4,1.791-4,4" style="fill:none;stroke:#222829;stroke-width:2;stroke-miterlimit:10;"/><line style="fill:none;stroke:#222829;stroke-width:2;stroke-miterlimit:10;" x1="48" x2="46" y1="9" y2="9"/><line style="fill:none;stroke:#222829;stroke-width:2;stroke-miterlimit:10;" x1="44" x2="42" y1="9" y2="9"/><line style="fill:none;stroke:#222829;stroke-width:2;stroke-miterlimit:10;" x1="40" x2="38" y1="9" y2="9"/><line style="fill:none;stroke:#222829;stroke-width:2;stroke-miterlimit:10;" x1="38" x2="60" y1="5" y2="5"/></g><g><polyline points="24,57 1,57 1,53 12,53   " style="fill:none;stroke:#222829;stroke-width:2;stroke-miterlimit:10;"/><polyline points="24,61 1,61 1,57   " style="fill:none;stroke:#222829;stroke-width:2;stroke-miterlimit:10;"/><circle cx="4" cy="46" r="3" style="fill:none;stroke:#222829;stroke-width:2;stroke-miterlimit:10;"/><line style="fill:none;stroke:#222829;stroke-width:2;stroke-miterlimit:10;" x1="14" x2="16" y1="53" y2="53"/><line style="fill:none;stroke:#222829;stroke-width:2;stroke-miterlimit:10;" x1="26" x2="28" y1="61" y2="61"/><line style="fill:none;stroke:#222829;stroke-width:2;stroke-miterlimit:10;" x1="26" x2="28" y1="57" y2="57"/></g></g></svg>