<?xml version="1.0" encoding="utf-8"?>
<!-- Generator: Adobe Illustrator 20.1.0, SVG Export Plug-In . SVG Version: 6.00 Build 0)  -->
<svg version="1.1" id="_x34_0_x5F_eyetap_x5F_augmentation"
	 xmlns="http://www.w3.org/2000/svg" xmlns:xlink="http://www.w3.org/1999/xlink" x="0px" y="0px" viewBox="0 0 64 62"
	 style="enable-background:new 0 0 64 62;" xml:space="preserve">
<style type="text/css">
	.st0{fill:none;stroke:#FFFFFF;stroke-width:2;stroke-linejoin:round;stroke-miterlimit:10;}
	.st1{fill:none;stroke:#FFFFFF;stroke-width:2;stroke-miterlimit:10;}
</style>
<g>
	<g>
		<path class="st0" d="M63,32c0,0-13.9,17-31,17S1,32,1,32s13.9-17,31-17S63,32,63,32z"/>
		<circle class="st0" cx="32" cy="32" r="17"/>
		<circle class="st0" cx="32" cy="32" r="13"/>
		<line class="st0" x1="27" y1="26" x2="25" y2="26"/>
		<path class="st1" d="M32,39c-3.9,0-7-3.1-7-7v-1c3.3,0,6-2.7,6-6h1c3.9,0,7,3.1,7,7"/>
		<circle class="st1" cx="36" cy="36" r="3"/>
	</g>
	<g>
		<polyline class="st1" points="20,13 14,7 0,7 		"/>
		<line class="st1" x1="0" y1="3" x2="2" y2="3"/>
		<line class="st1" x1="4" y1="3" x2="6" y2="3"/>
		<line class="st1" x1="8" y1="3" x2="10" y2="3"/>
	</g>
	<g>
		<polyline class="st1" points="44,51 50,57 64,57 		"/>
		<line class="st1" x1="64" y1="61" x2="62" y2="61"/>
		<line class="st1" x1="60" y1="61" x2="58" y2="61"/>
		<line class="st1" x1="56" y1="61" x2="54" y2="61"/>
	</g>
	<g>
		<polyline class="st1" points="35,12 35,1 63,1 63,24 		"/>
		<path class="st1" d="M55,17c2.2,0,4-1.8,4-4s-1.8-4-4-4s-4,1.8-4,4"/>
		<line class="st1" x1="48" y1="9" x2="46" y2="9"/>
		<line class="st1" x1="44" y1="9" x2="42" y2="9"/>
		<line class="st1" x1="40" y1="9" x2="38" y2="9"/>
		<line class="st1" x1="38" y1="5" x2="60" y2="5"/>
	</g>
	<g>
		<polyline class="st1" points="24,57 1,57 1,53 12,53 		"/>
		<polyline class="st1" points="24,61 1,61 1,57 		"/>
		<circle class="st1" cx="4" cy="46" r="3"/>
		<line class="st1" x1="14" y1="53" x2="16" y2="53"/>
		<line class="st1" x1="26" y1="61" x2="28" y2="61"/>
		<line class="st1" x1="26" y1="57" x2="28" y2="57"/>
	</g>
</g>
</svg>
