<?xml version="1.0" encoding="utf-8"?>
<!-- Generator: Adobe Illustrator 20.1.0, SVG Export Plug-In . SVG Version: 6.00 Build 0)  -->
<svg version="1.1" id="_x34_0_x5F_tracking_x5F_glove"
	 xmlns="http://www.w3.org/2000/svg" xmlns:xlink="http://www.w3.org/1999/xlink" x="0px" y="0px" viewBox="0 0 64 52"
	 style="enable-background:new 0 0 64 52;" xml:space="preserve">
<style type="text/css">
	.st0{fill:none;stroke:#FFFFFF;stroke-width:2;stroke-linejoin:round;stroke-miterlimit:10;}
</style>
<g>
	<rect x="20" y="31" class="st0" width="6" height="4"/>
	<rect x="16" y="23" class="st0" width="10" height="4"/>
	<rect x="18" y="15" class="st0" width="8" height="4"/>
	<rect x="22" y="7" class="st0" width="4" height="4"/>
	<path class="st0" d="M33,23c0.6,0,1,0.4,1,1v2c0,0.6-0.4,1-1,1h-2c-0.6,0-1-0.4-1-1v-2c0-0.6,0.4-1,1-1H33z"/>
	<path class="st0" d="M33,15c0.6,0,1,0.4,1,1v2c0,0.6-0.4,1-1,1h-2c-0.6,0-1-0.4-1-1v-2c0-0.6,0.4-1,1-1H33z"/>
	<path class="st0" d="M58,13H39c-0.6,0-1-0.4-1-1V7"/>
	<path class="st0" d="M58,29H39c-0.6,0-1,0.4-1,1v2"/>
	<line class="st0" x1="34" y1="17" x2="58" y2="17"/>
	<line class="st0" x1="34" y1="25" x2="58" y2="25"/>
	<rect x="12" y="31" class="st0" width="4" height="4"/>
	<rect x="4" y="31" class="st0" width="4" height="4"/>
	<rect x="8" y="23" class="st0" width="4" height="4"/>
	<rect x="0" y="23" class="st0" width="4" height="4"/>
	<rect x="10" y="15" class="st0" width="4" height="4"/>
	<rect x="2" y="15" class="st0" width="4" height="4"/>
	<rect x="14" y="7" class="st0" width="4" height="4"/>
	<rect x="6" y="7" class="st0" width="4" height="4"/>
	<line class="st0" x1="8" y1="33" x2="12" y2="33"/>
	<line class="st0" x1="16" y1="33" x2="20" y2="33"/>
	<line class="st0" x1="14" y1="17" x2="18" y2="17"/>
	<line class="st0" x1="12" y1="25" x2="16" y2="25"/>
	<line class="st0" x1="4" y1="25" x2="8" y2="25"/>
	<line class="st0" x1="6" y1="17" x2="10" y2="17"/>
	<line class="st0" x1="10" y1="9" x2="14" y2="9"/>
	<line class="st0" x1="18" y1="9" x2="22" y2="9"/>
	<polygon class="st0" points="26,25 26,25 30,25 30,25 	"/>
	<polygon class="st0" points="26,17 26,17 30,17 30,17 	"/>
	<path class="st0" d="M26,11h5c0.6,0,1,0.4,1,1v3"/>
	<path class="st0" d="M26,31h5c0.6,0,1-0.4,1-1v-3"/>
	<line class="st0" x1="45" y1="21" x2="47" y2="21"/>
	<line class="st0" x1="49" y1="21" x2="51" y2="21"/>
	<line class="st0" x1="53" y1="21" x2="55" y2="21"/>
	<polyline class="st0" points="58,11 62,11 62,31 58,31 	"/>
	<polyline class="st0" points="47,9 45,9 41,7 29,7 	"/>
	<polyline class="st0" points="41,35 30,35 30,38 27,41 31,45 41,35 45,33 58,33 58,9 53,9 	"/>
	
		<rect x="22.4" y="44.7" transform="matrix(0.7071 -0.7071 0.7071 0.7071 -26.4114 31.2363)" class="st0" width="4.2" height="5.7"/>
	<line class="st0" x1="26" y1="46" x2="29" y2="43"/>
	<line class="st0" x1="32" y1="23" x2="32" y2="19"/>
	<path class="st0" d="M63,1H53c-1.7,0-3,1.3-3,3v6"/>
</g>
</svg>
