<?xml version="1.0" encoding="utf-8"?>
<!-- Generator: Adobe Illustrator 20.1.0, SVG Export Plug-In . SVG Version: 6.00 Build 0)  -->
<svg version="1.1" id="_x34_0_x5F_tracking_x5F_glove"
	 xmlns="http://www.w3.org/2000/svg" xmlns:xlink="http://www.w3.org/1999/xlink" x="0px" y="0px" viewBox="0 0 52 64"
	 style="enable-background:new 0 0 52 64;" xml:space="preserve">
<style type="text/css">
	.st0{fill:none;stroke:#FFFFFF;stroke-width:2;stroke-linejoin:round;stroke-miterlimit:10;}
</style>
<g>
	<rect x="17" y="21" class="st0" width="4" height="6"/>
	<rect x="25" y="17" class="st0" width="4" height="10"/>
	<rect x="33" y="19" class="st0" width="4" height="8"/>
	<rect x="41" y="23" class="st0" width="4" height="4"/>
	<path class="st0" d="M29,34c0,0.6-0.4,1-1,1h-2c-0.6,0-1-0.4-1-1v-2c0-0.6,0.4-1,1-1h2c0.6,0,1,0.4,1,1V34z"/>
	<path class="st0" d="M37,34c0,0.6-0.4,1-1,1h-2c-0.6,0-1-0.4-1-1v-2c0-0.6,0.4-1,1-1h2c0.6,0,1,0.4,1,1V34z"/>
	<path class="st0" d="M39,59V40c0-0.6,0.4-1,1-1h5"/>
	<path class="st0" d="M23,59V40c0-0.6-0.4-1-1-1h-2"/>
	<line class="st0" x1="35" y1="35" x2="35" y2="59"/>
	<line class="st0" x1="27" y1="35" x2="27" y2="59"/>
	<rect x="17" y="13" class="st0" width="4" height="4"/>
	<rect x="17" y="5" class="st0" width="4" height="4"/>
	<rect x="25" y="9" class="st0" width="4" height="4"/>
	<rect x="25" y="1" class="st0" width="4" height="4"/>
	<rect x="33" y="11" class="st0" width="4" height="4"/>
	<rect x="33" y="3" class="st0" width="4" height="4"/>
	<rect x="41" y="15" class="st0" width="4" height="4"/>
	<rect x="41" y="7" class="st0" width="4" height="4"/>
	<line class="st0" x1="19" y1="9" x2="19" y2="13"/>
	<line class="st0" x1="19" y1="17" x2="19" y2="21"/>
	<line class="st0" x1="35" y1="15" x2="35" y2="19"/>
	<line class="st0" x1="27" y1="13" x2="27" y2="17"/>
	<line class="st0" x1="27" y1="5" x2="27" y2="9"/>
	<line class="st0" x1="35" y1="7" x2="35" y2="11"/>
	<line class="st0" x1="43" y1="11" x2="43" y2="15"/>
	<line class="st0" x1="43" y1="19" x2="43" y2="23"/>
	<rect x="27" y="27" class="st0" width="0" height="4"/>
	<rect x="35" y="27" class="st0" width="0" height="4"/>
	<path class="st0" d="M41,27v5c0,0.6-0.4,1-1,1h-3"/>
	<path class="st0" d="M21,27v5c0,0.6,0.4,1,1,1h3"/>
	<line class="st0" x1="31" y1="46" x2="31" y2="48"/>
	<line class="st0" x1="31" y1="50" x2="31" y2="52"/>
	<line class="st0" x1="31" y1="54" x2="31" y2="56"/>
	<polyline class="st0" points="41,59 41,63 21,63 21,59 	"/>
	<polyline class="st0" points="43,48 43,46 45,42 45,30 	"/>
	<polyline class="st0" points="17,42 17,31 14,31 11,28 7,32 17,42 19,46 19,59 43,59 43,54 	"/>
	<rect x="1.7" y="23.4" transform="matrix(0.7071 -0.7071 0.7071 0.7071 -16.713 10.6511)" class="st0" width="5.7" height="4.2"/>
	<line class="st0" x1="6" y1="27" x2="9" y2="30"/>
	<line class="st0" x1="29" y1="33" x2="33" y2="33"/>
	<path class="st0" d="M51,64V54c0-1.7-1.3-3-3-3h-6"/>
</g>
</svg>
