<?xml version="1.0" encoding="utf-8"?>
<!-- Generator: Adobe Illustrator 21.1.0, SVG Export Plug-In . SVG Version: 6.00 Build 0)  -->
<svg version="1.1" id="Layer_1" xmlns="http://www.w3.org/2000/svg" xmlns:xlink="http://www.w3.org/1999/xlink" x="0px" y="0px"
	 viewBox="0 0 27 32" style="enable-background:new 0 0 27 32;" xml:space="preserve">
<g id="Layer_4_copy_2">
	<g>
		<path d="M27,24.5V0H13.5H0v24.5L13.5,32L27,24.5z M1,1h12.5H26v22.9l-12.5,6.9L1,23.9V1z"/>
		<path d="M16.3,22.7c0.6-0.1,1.4-0.4,2.1-0.9v-2.7c-0.8,0.7-1.8,0.9-2.7,0.9c-0.5,0-0.9-0.1-1.3-0.3c-0.3-0.2-0.5-0.4-0.6-0.7
			c-0.1-0.3-0.2-1.1-0.2-2.1v-4.3h4.3v-2.7h-4.3V5.9H11c0,0.9,0,1.6-0.3,2.1C10.4,8.6,10,9.1,9.5,9.5c-0.5,0.4-1,0.6-1.7,0.6v2.7
			h2.1v5.9c0,0.8,0.1,1.6,0.3,2c0.2,0.4,0.4,0.8,0.8,1.1c0.4,0.4,0.8,0.6,1.4,0.8c0.7,0.2,1.4,0.3,2.1,0.3
			C15.1,22.9,15.8,22.9,16.3,22.7z"/>
	</g>
</g>
</svg>
