<?xml version="1.0" ?><!DOCTYPE svg  PUBLIC '-//W3C//DTD SVG 1.1//EN'  'http://www.w3.org/Graphics/SVG/1.1/DTD/svg11.dtd'><svg height="40px" id="_x34_0_x5F_virtual_x5F_glasses" style="enable-background:new 0 0 64 40;" version="1.1" viewBox="0 0 64 40" width="64px" xml:space="preserve" xmlns="http://www.w3.org/2000/svg" xmlns:xlink="http://www.w3.org/1999/xlink"><g><polyline points="1,17 1,16 3,14 61,14 63,16 63,18 61,20    38,20 36,22 28,22 26,20 18,20  " style="fill:none;stroke:#222829;stroke-width:2;stroke-miterlimit:10;"/><polyline points="24,1 16,1 3,14  " style="fill:none;stroke:#222829;stroke-width:2;stroke-miterlimit:10;"/><line style="fill:none;stroke:#222829;stroke-width:2;stroke-miterlimit:10;" x1="16" x2="9" y1="1" y2="14"/><polyline points="40,1 48,1 61,14  " style="fill:none;stroke:#222829;stroke-width:2;stroke-miterlimit:10;"/><line style="fill:none;stroke:#222829;stroke-width:2;stroke-miterlimit:10;" x1="48" x2="55" y1="1" y2="14"/><line style="fill:none;stroke:#222829;stroke-width:2;stroke-miterlimit:10;" x1="31" x2="33" y1="18" y2="18"/><rect height="4" style="fill:none;stroke:#222829;stroke-width:2;stroke-miterlimit:10;" width="4" x="11" y="20"/><polyline points="8,24 1,24 1,20 11,20  " style="fill:none;stroke:#222829;stroke-width:2;stroke-miterlimit:10;"/><line style="fill:none;stroke:#222829;stroke-width:2;stroke-miterlimit:10;" x1="16" x2="14" y1="28" y2="28"/><line style="fill:none;stroke:#222829;stroke-width:2;stroke-miterlimit:10;" x1="12" x2="10" y1="28" y2="28"/><line style="fill:none;stroke:#222829;stroke-width:2;stroke-miterlimit:10;" x1="8" x2="6" y1="28" y2="28"/><path d="M3,24v9c0,3.3,2.7,6,6,6h14c2.762,0,5-2.238,5-5   c0-2.209,1.791-4,4-4s4,1.791,4,4c0,2.762,2.238,5,5,5h14c3.3,0,6-2.7,6-6V23" style="fill:none;stroke:#222829;stroke-width:2;stroke-miterlimit:10;"/><polygon points="46,32 46,26 52,29  " style="fill:none;stroke:#222829;stroke-width:2;stroke-miterlimit:10;"/></g></svg>