<?xml version="1.0" encoding="utf-8"?>
<!-- Generator: Adobe Illustrator 20.1.0, SVG Export Plug-In . SVG Version: 6.00 Build 0)  -->
<svg version="1.1" id="_x34_0_x5F_virtual_x5F_glasses"
	 xmlns="http://www.w3.org/2000/svg" xmlns:xlink="http://www.w3.org/1999/xlink" x="0px" y="0px" viewBox="0 0 64 40"
	 style="enable-background:new 0 0 64 40;" xml:space="preserve">
<style type="text/css">
	.st0{fill:none;stroke:#FFFFFF;stroke-width:2;stroke-miterlimit:10;}
</style>
<g>
	<polyline class="st0" points="1,17 1,16 3,14 61,14 63,16 63,18 61,20 38,20 36,22 28,22 26,20 18,20 	"/>
	<polyline class="st0" points="24,1 16,1 3,14 	"/>
	<line class="st0" x1="16" y1="1" x2="9" y2="14"/>
	<polyline class="st0" points="40,1 48,1 61,14 	"/>
	<line class="st0" x1="48" y1="1" x2="55" y2="14"/>
	<line class="st0" x1="31" y1="18" x2="33" y2="18"/>
	<rect x="11" y="20" class="st0" width="4" height="4"/>
	<polyline class="st0" points="8,24 1,24 1,20 11,20 	"/>
	<line class="st0" x1="16" y1="28" x2="14" y2="28"/>
	<line class="st0" x1="12" y1="28" x2="10" y2="28"/>
	<line class="st0" x1="8" y1="28" x2="6" y2="28"/>
	<path class="st0" d="M3,24v9c0,3.3,2.7,6,6,6h14c2.8,0,5-2.2,5-5c0-2.2,1.8-4,4-4s4,1.8,4,4c0,2.8,2.2,5,5,5h14c3.3,0,6-2.7,6-6V23
		"/>
	<polygon class="st0" points="46,32 46,26 52,29 	"/>
</g>
</svg>
