<svg width="66" height="50" xmlns="http://www.w3.org/2000/svg">

 <g>
  <title>background</title>
  <rect fill="none" id="canvas_background" height="52" width="68" y="-1" x="-1"/>
 </g>
 <g>
  <title>Layer 1</title>
  <polygon id="svg_2" points="43.9676399230957,19.934409715235233 42.4676399230957,19.934409715235233 42.4676399230957,27.234410859644413 49.767642974853516,27.234410859644413 49.767642974853516,25.734410859644413 45.06764221191406,25.734410859644413 50.4676399230957,20.234410859644413 49.4676399230957,19.134410478174686 43.9676399230957,24.634408570826054 "/>
  <rect id="svg_3" y="17.280768" x="47.600699" width="1.5" transform="matrix(0.7071,0.7071,-0.7071,0.7071,32.4508,-30.9105) " height="1.5"/>
  <rect id="svg_4" y="19.480768" x="45.300699" width="1.5" transform="matrix(0.7071,0.7071,-0.7071,0.7071,33.3876,-28.6476) " height="1.5"/>
  <polygon id="svg_5" points="39.267642974853516,14.634410478174686 44.767642974853516,9.134410478174686 44.767642974853516,13.93441066890955 46.267642974853516,13.93441066890955 46.267642974853516,6.634410478174686 38.9676399230957,6.634410478174686 38.9676399230957,8.134410478174686 43.667640686035156,8.134410478174686 38.267642974853516,13.53441009670496 "/>
  <rect id="svg_6" y="19.407458" x="28.327388" width="1.5" transform="matrix(0.7071,0.7071,-0.7071,0.7071,28.4917,-16.75) " height="1.5"/>
  <rect id="svg_7" y="17.107458" x="30.627388" width="1.5" transform="matrix(0.7071,0.7071,-0.7071,0.7071,27.5521,-19.0122) " height="1.5"/>
  <rect id="svg_8" y="17.356958" x="12.412738" width="5" height="1.5"/>
  <rect id="svg_9" y="17.356958" x="9.412738" width="1.5" height="1.5"/>
  <path id="svg_10" d="m15.267643,45.579505l-4.7,0c-0.4,0 -0.8,0.3 -0.8,0.8c0,0.4 0.3,0.8 0.8,0.8l4.7,0c0.4,0 0.8,-0.3 0.8,-0.8c-0.1,-0.5 -0.4,-0.8 -0.8,-0.8z"/>
  <path id="svg_11" d="m63.112738,0.302053l-46.8,0c-1.5,0 -2.8,1.2 -2.8,2.8l0,12.1l-10.4,0c-1.5,0 -2.8,1.2 -2.8,2.8l0,28.9c0,1.5 1.2,2.8 2.8,2.8l20,0c1.5,0 2.8,-1.2 2.8,-2.8l0,-9.1l6.6,0l0,4.2l-3.4,0l0,1.5l21.2,0l0,-1.5l-3.4,0l0,-4.2l16.1,0c1.5,0 2.8,-1.2 2.8,-2.8l0,-32c0.1,-1.5 -1.2,-2.7 -2.7,-2.7zm-48,2.7c0,-0.7 0.6,-1.3 1.3,-1.3l46.8,0c0.7,0 1.3,0.6 1.3,1.3l0,29.4l-38.6,0l0,-14.6c0,-1.5 -1.2,-2.8 -2.8,-2.8l-8,0l0,-12zm-12,13.6l20,0c0.7,0 1.3,0.6 1.3,1.3l0,2.2l-22.5,0l0,-2.2c0,-0.8 0.5,-1.3 1.2,-1.3zm21.3,5l0,21.7l-22.5,0l0,-21.7l22.5,0zm-1.3,26.4l-20,0c-0.7,0 -1.2,-0.6 -1.2,-1.3l0,-2l22.5,0l0,2c0,0.8 -0.6,1.3 -1.3,1.3zm22.4,-6.2l-11.5,0l0,-4.2l11.5,0l0,4.2zm17.6,-5.6l-37.2,0l0,-2.2l38.5,0l0,1c0,0.6 -0.6,1.2 -1.3,1.2z"/>
 </g>
</svg>