<?xml version="1.0" encoding="utf-8"?>
<!-- Generator: Adobe Illustrator 20.1.0, SVG Export Plug-In . SVG Version: 6.00 Build 0)  -->
<svg version="1.1" id="_x34_0_x5F_mobile_x5F_flexible_x5F_display"
	 xmlns="http://www.w3.org/2000/svg" xmlns:xlink="http://www.w3.org/1999/xlink" x="0px" y="0px" viewBox="0 0 64 48"
	 style="enable-background:new 0 0 64 48;" xml:space="preserve">
<style type="text/css">
	.st0{fill:none;stroke:#FFFFFF;stroke-width:2;stroke-linejoin:round;stroke-miterlimit:10;}
</style>
<g>
	<polyline class="st0" points="50,43 11,43 11,9 50,9 	"/>
	<path class="st0" d="M63,42V6c0-2.8-2.2-5-5-5s-5,2.2-5,5v36c0-2.8,2.2-5,5-5S63,39.2,63,42s-2.2,5-5,5H4c-1.7,0-3-1.3-3-3V8
		c0-1.7,1.3-3,3-3h46"/>
	<line class="st0" x1="6" y1="23" x2="6" y2="29"/>
	<rect x="17" y="15" class="st0" width="2" height="2"/>
	<rect x="25" y="15" class="st0" width="2" height="2"/>
	<rect x="33" y="15" class="st0" width="2" height="2"/>
	<rect x="41" y="15" class="st0" width="2" height="2"/>
	<rect x="17" y="23" class="st0" width="2" height="2"/>
	<rect x="25" y="23" class="st0" width="2" height="2"/>
	<rect x="33" y="23" class="st0" width="2" height="2"/>
	<rect x="41" y="23" class="st0" width="2" height="2"/>
	<rect x="17" y="31" class="st0" width="2" height="2"/>
	<rect x="25" y="31" class="st0" width="2" height="2"/>
	<line class="st0" x1="58" y1="18" x2="58" y2="20"/>
	<line class="st0" x1="58" y1="14" x2="58" y2="16"/>
	<line class="st0" x1="58" y1="22" x2="58" y2="24"/>
</g>
</svg>
