<?xml version="1.0" ?><!DOCTYPE svg  PUBLIC '-//W3C//DTD SVG 1.1//EN'  'http://www.w3.org/Graphics/SVG/1.1/DTD/svg11.dtd'><svg height="48px" id="_x34_0_x5F_mobile_x5F_flexible_x5F_display" style="enable-background:new 0 0 64 48;" version="1.1" viewBox="0 0 64 48" width="64px" xml:space="preserve" xmlns="http://www.w3.org/2000/svg" xmlns:xlink="http://www.w3.org/1999/xlink"><g><polyline points="50,43 11,43 11,9    50,9  " style="fill:none;stroke:#222829;stroke-width:2;stroke-linejoin:round;stroke-miterlimit:10;"/><path d="M63,42V6   c0-2.762-2.238-5-5-5s-5,2.238-5,5v36c0-2.762,2.238-5,5-5S63,39.238,63,42s-2.238,5-5,5H4c-1.65,0-3-1.35-3-3V8c0-1.65,1.35-3,3-3   h46" style="fill:none;stroke:#222829;stroke-width:2;stroke-linejoin:round;stroke-miterlimit:10;"/><line style="fill:none;stroke:#222829;stroke-width:2;stroke-linejoin:round;stroke-miterlimit:10;" x1="6" x2="6" y1="23" y2="29"/><rect height="2" style="fill:none;stroke:#222829;stroke-width:2;stroke-linejoin:round;stroke-miterlimit:10;" width="2" x="17" y="15"/><rect height="2" style="fill:none;stroke:#222829;stroke-width:2;stroke-linejoin:round;stroke-miterlimit:10;" width="2" x="25" y="15"/><rect height="2" style="fill:none;stroke:#222829;stroke-width:2;stroke-linejoin:round;stroke-miterlimit:10;" width="2" x="33" y="15"/><rect height="2" style="fill:none;stroke:#222829;stroke-width:2;stroke-linejoin:round;stroke-miterlimit:10;" width="2" x="41" y="15"/><rect height="2" style="fill:none;stroke:#222829;stroke-width:2;stroke-linejoin:round;stroke-miterlimit:10;" width="2" x="17" y="23"/><rect height="2" style="fill:none;stroke:#222829;stroke-width:2;stroke-linejoin:round;stroke-miterlimit:10;" width="2" x="25" y="23"/><rect height="2" style="fill:none;stroke:#222829;stroke-width:2;stroke-linejoin:round;stroke-miterlimit:10;" width="2" x="33" y="23"/><rect height="2" style="fill:none;stroke:#222829;stroke-width:2;stroke-linejoin:round;stroke-miterlimit:10;" width="2" x="41" y="23"/><rect height="2" style="fill:none;stroke:#222829;stroke-width:2;stroke-linejoin:round;stroke-miterlimit:10;" width="2" x="17" y="31"/><rect height="2" style="fill:none;stroke:#222829;stroke-width:2;stroke-linejoin:round;stroke-miterlimit:10;" width="2" x="25" y="31"/><line style="fill:none;stroke:#222829;stroke-width:2;stroke-linejoin:round;stroke-miterlimit:10;" x1="58" x2="58" y1="18" y2="20"/><line style="fill:none;stroke:#222829;stroke-width:2;stroke-linejoin:round;stroke-miterlimit:10;" x1="58" x2="58" y1="14" y2="16"/><line style="fill:none;stroke:#222829;stroke-width:2;stroke-linejoin:round;stroke-miterlimit:10;" x1="58" x2="58" y1="22" y2="24"/></g></svg>